<svg width="39" height="37" viewBox="0 0 39 37" fill="none" xmlns="http://www.w3.org/2000/svg">
<path d="M19.3134 0.0676296C19.2951 0.109508 19.2454 0.198499 19.1983 0.271786C19.1538 0.342455 19.036 0.530904 18.9392 0.690565C18.8423 0.847608 18.6617 1.13028 18.5414 1.31874C18.3581 1.60141 18.1671 1.9155 17.8556 2.43898C17.8321 2.47824 17.7326 2.64052 17.6306 2.79756C17.4421 3.09332 17.3243 3.27916 16.8847 3.98847C16.4031 4.76583 16.3167 4.90455 16.178 5.12703C16.1021 5.25005 15.9582 5.47776 15.8613 5.63742C15.7645 5.79446 15.6362 6.00385 15.5734 6.10331C15.5106 6.20016 15.3876 6.39123 15.3012 6.52995C15.2149 6.66605 15.1102 6.83356 15.0683 6.899C14.9976 7.00893 14.995 7.02463 15.029 7.0796C15.1128 7.22094 15.5158 7.85173 15.6519 8.06112C15.7331 8.18413 15.9398 8.51131 16.1126 8.78875C16.4266 9.2939 16.7276 9.77027 16.9239 10.0791C17.0155 10.2205 17.2668 10.6209 17.4029 10.8408C17.4447 10.9088 17.6201 11.1863 17.9315 11.6836C18.0048 11.7987 18.1723 12.0631 18.3058 12.2725C18.4393 12.4819 18.5885 12.7227 18.6382 12.8064C18.6879 12.8876 18.8292 13.1153 18.9523 13.309C19.2114 13.7173 19.7139 14.5182 20.0044 14.9762C20.3813 15.5756 20.4519 15.6882 20.5618 15.8583C20.622 15.9525 20.6901 16.0625 20.7136 16.107C20.7346 16.1488 20.7895 16.23 20.834 16.2876C20.8785 16.3425 20.9152 16.4027 20.9152 16.4184C20.9152 16.4341 20.8785 16.5074 20.834 16.5781C20.7372 16.7377 20.5331 17.0859 20.3132 17.468C20.2242 17.625 20.075 17.8789 19.9861 18.0307C19.8945 18.1825 19.7898 18.371 19.7505 18.4495C19.7112 18.528 19.6458 18.6406 19.6066 18.6982C19.5673 18.7557 19.4652 18.9259 19.3789 19.0777C19.2925 19.2295 19.1355 19.4991 19.0308 19.6797C18.9261 19.8603 18.8214 20.0409 18.8005 20.0854C18.7769 20.1273 18.7167 20.2293 18.6644 20.3079C18.6094 20.3864 18.523 20.5408 18.4681 20.6481C18.4131 20.7554 18.3503 20.8732 18.3241 20.9098C18.2979 20.9465 18.1906 21.1271 18.0833 21.3155C17.976 21.5014 17.7719 21.8547 17.6306 22.1008C17.4892 22.3442 17.3217 22.6269 17.2589 22.7289C17.1699 22.865 17.1464 22.92 17.1647 22.9514C17.1804 22.9723 17.2066 22.9907 17.2275 22.9907C17.5965 22.9854 21.9699 22.9462 23.2131 22.9383L24.8933 22.9279L24.9562 22.9854C25.019 23.043 25.2388 23.3833 25.4744 23.789C25.545 23.912 25.6209 24.0298 25.6392 24.0507C25.6576 24.0716 25.6994 24.1423 25.7308 24.2051C25.7623 24.2706 25.8277 24.3831 25.8748 24.4538C25.9219 24.5271 26.0711 24.7757 26.2098 25.0061C26.3459 25.2364 26.5239 25.5321 26.605 25.6656C26.6861 25.7965 26.7516 25.9117 26.7516 25.9221C26.7516 25.9326 26.7908 26.0007 26.8405 26.0739C26.9269 26.2074 27.2253 26.6943 27.3928 26.9822C27.4791 27.1314 27.6283 27.38 27.8639 27.7674C27.9372 27.8904 28.0314 28.0475 28.0733 28.1207C28.1125 28.1914 28.1832 28.3092 28.2303 28.3825C28.2774 28.4531 28.526 28.8667 28.7825 29.2959C29.0416 29.7252 29.2981 30.1571 29.3557 30.2513C29.4133 30.3481 29.518 30.5235 29.5886 30.6439C29.6593 30.7617 29.7404 30.8716 29.7666 30.8847C29.8006 30.903 30.4994 30.903 31.9415 30.8847C34.7341 30.8481 38.3772 30.8166 38.6651 30.8271C38.7908 30.8297 38.9164 30.8271 38.9478 30.8166C39.0237 30.7931 39.0132 30.7146 38.9269 30.6832C38.851 30.6544 38.7515 30.5078 37.8643 29.1023C37.7936 28.9949 37.6366 28.7463 37.5136 28.55C37.3879 28.3537 37.2204 28.0919 37.1419 27.9663C37.0634 27.8407 36.9168 27.6103 36.8148 27.4533C36.4641 26.9063 36.3463 26.7204 35.7312 25.7468C35.6789 25.663 35.5663 25.485 35.48 25.3463C35.3936 25.2102 35.2732 25.0244 35.213 24.9328C35.1528 24.8438 35.0612 24.6998 35.0089 24.6134C34.9592 24.5271 34.8597 24.3674 34.789 24.2601C34.7184 24.1528 34.5927 23.9539 34.509 23.8178C34.3546 23.5717 34.0065 23.0247 33.784 22.6766C33.7186 22.5745 33.5956 22.3808 33.5092 22.2447C33.3391 21.9777 33.1794 21.7265 32.8811 21.2553C32.6455 20.8863 32.3629 20.444 32.1692 20.1377C31.9179 19.7425 31.4599 19.0175 31.3971 18.9206C31.3657 18.8709 31.2715 18.7217 31.1851 18.5882C31.1014 18.4574 30.9496 18.2166 30.8475 18.0569C30.6172 17.6931 30.4732 17.4654 30.2403 17.1016C30.1382 16.9419 29.942 16.6304 29.8006 16.408C29.6593 16.1855 29.5075 15.9421 29.4604 15.8714C29.4133 15.7981 29.2798 15.5861 29.1594 15.4003C29.0416 15.2118 28.8898 14.9762 28.8218 14.8715C28.7564 14.7669 28.6307 14.5679 28.5444 14.4292C28.458 14.2905 28.314 14.0654 28.2251 13.9319C28.1335 13.7958 28.0602 13.678 28.0602 13.6675C28.0602 13.6597 27.9869 13.5393 27.8953 13.4006C27.8037 13.2619 27.6833 13.076 27.6257 12.9844C27.5708 12.8954 27.4844 12.7593 27.4347 12.6834C27.3875 12.6075 27.2567 12.406 27.1494 12.2332C27.0421 12.0605 26.8929 11.8249 26.817 11.7097C26.6887 11.5082 26.482 11.1863 26.2334 10.7937C26.1705 10.6916 26.024 10.4665 25.9114 10.2885C25.7989 10.1105 25.7047 9.95872 25.7047 9.94563C25.7047 9.93516 25.668 9.87758 25.6235 9.81738C25.579 9.75718 25.4508 9.56349 25.3409 9.38551C24.7127 8.39614 24.1213 7.46174 24.082 7.40415C23.8988 7.12933 23.7418 6.88068 23.7077 6.81524C23.6868 6.77075 23.6057 6.6425 23.5271 6.52733C23.4513 6.41217 23.323 6.21324 23.2445 6.08761C23.166 5.95936 23.0194 5.72641 22.9173 5.56937C22.8179 5.41232 22.6347 5.12441 22.5117 4.92811C22.3887 4.73442 22.1871 4.41772 22.0615 4.22403C21.9359 4.03035 21.8155 3.83143 21.7946 3.77908C21.7736 3.72935 21.6689 3.55922 21.5642 3.40479C21.4622 3.25037 21.292 2.9991 21.19 2.84206C21.0905 2.68763 20.9727 2.50703 20.9283 2.44159C20.8864 2.37616 20.7974 2.23482 20.732 2.13013C20.6665 2.02543 20.5828 1.89456 20.5461 1.83698C20.5095 1.78201 20.3629 1.55168 20.219 1.32397C20.0777 1.09626 19.9154 0.842374 19.863 0.761236C19.8081 0.677479 19.74 0.564931 19.7086 0.507349C19.6772 0.449766 19.6196 0.360776 19.5804 0.311046C19.5411 0.261316 19.4835 0.169704 19.4521 0.106887C19.3867 -0.0213647 19.3553 -0.0292135 19.3134 0.0676296Z" fill="white"/>
<path d="M14.3611 4.95191C14.3114 4.97284 14.081 5.05398 13.8507 5.1325C13.2619 5.32881 12.9007 5.45968 12.5814 5.58793C12.4296 5.64813 12.2124 5.7345 12.0972 5.779C11.7334 5.92034 11.0111 6.23442 10.6316 6.41502C10.43 6.51187 10.1892 6.61918 10.095 6.65844C10.0008 6.69508 9.84377 6.77622 9.74432 6.84166C9.64486 6.90709 9.49568 6.98561 9.41455 7.01964C9.25228 7.08507 9.0115 7.21856 8.93822 7.28399C8.91204 7.30755 8.76024 7.39916 8.59798 7.48815C8.43571 7.57976 8.19754 7.72633 8.06668 7.8127C7.43593 8.24457 6.91772 8.60577 6.83136 8.67644C6.77639 8.72094 6.48588 8.95388 6.18229 9.19468C5.59865 9.66058 4.86321 10.3673 4.44184 10.8672C4.32144 11.0085 4.16965 11.1865 4.10422 11.2572C3.96812 11.4064 3.66191 11.8042 3.48655 12.0555C3.19342 12.4821 2.92123 12.8983 2.9003 12.9532C2.88721 12.9873 2.82178 13.0972 2.75635 13.1993C2.63596 13.3877 2.37423 13.9086 2.20412 14.3064C2.15177 14.4294 2.06279 14.6231 2.00782 14.7383C1.95286 14.8535 1.86126 15.089 1.80368 15.2618C1.74349 15.4345 1.66759 15.657 1.63356 15.7591C1.47391 16.2093 1.30641 16.9212 1.1834 17.6567C1.15985 17.8085 1.1232 18.0022 1.10227 18.0886C1.04731 18.3293 0.960938 19.5674 0.960938 20.1432C0.960938 20.7609 1.03945 21.9413 1.10488 22.2921C1.12582 22.4125 1.18602 22.7632 1.23575 23.072C1.28809 23.3809 1.37708 23.8154 1.43727 24.0405C1.49485 24.2656 1.55766 24.5195 1.5786 24.6058C1.63095 24.8519 1.7906 25.2837 1.83771 25.3125C1.86911 25.3335 1.8979 25.3151 1.97642 25.2209C2.02876 25.1581 2.24076 24.9173 2.44752 24.6922L2.8244 24.2787L2.76943 24.1138C2.64119 23.7159 2.46845 22.7789 2.35068 21.8576C2.26169 21.164 2.25646 21.0619 2.25908 20.0647C2.25908 19.1617 2.26693 18.9706 2.31666 18.5466C2.35068 18.2796 2.39256 17.9969 2.41349 17.9184C2.43443 17.8399 2.46845 17.6619 2.49201 17.5258C2.56267 17.107 2.67783 16.6385 2.78776 16.3218C2.84272 16.1569 2.916 15.9449 2.94479 15.8507C3.0678 15.4712 3.13584 15.2984 3.29811 14.9451C3.53104 14.4425 3.66714 14.1729 3.80324 13.9479C3.86605 13.8432 3.91839 13.7463 3.91839 13.7332C3.91839 13.7175 3.98382 13.6128 4.06234 13.4977C4.14086 13.3825 4.20629 13.2778 4.20629 13.2647C4.20629 13.2412 4.31359 13.0867 4.63289 12.6601C4.72188 12.5397 4.83965 12.3748 4.89723 12.2937C4.95219 12.2125 5.09876 12.0345 5.22438 11.8984C5.34739 11.7623 5.50443 11.5844 5.57247 11.5058C5.74259 11.3017 6.50159 10.5557 6.78948 10.3123C7.21347 9.94849 7.27367 9.89876 7.48828 9.73386C7.97508 9.35958 8.40692 9.06381 8.87802 8.78114C8.98009 8.72094 9.09787 8.6398 9.13974 8.60054C9.18423 8.55866 9.34127 8.46443 9.49307 8.39115C9.64486 8.31524 9.82022 8.21578 9.88565 8.17129C9.95108 8.12679 10.0689 8.05612 10.1474 8.01424C10.485 7.83888 11.2466 7.46198 11.4036 7.39654C12.6311 6.87306 12.9373 6.75528 13.5288 6.58777C13.6623 6.54851 13.8376 6.42811 13.8376 6.37314C13.8376 6.36267 13.9921 6.04074 14.1805 5.6586C14.3663 5.27646 14.5129 4.95191 14.505 4.9362C14.4841 4.90217 14.471 4.90479 14.3611 4.95191Z" fill="white"/>
<path d="M24.4062 4.937C24.4062 4.9527 24.5607 5.27726 24.7465 5.65678C24.9349 6.03891 25.0867 6.36085 25.0867 6.37132C25.0867 6.38441 25.1208 6.42367 25.16 6.46293C25.215 6.51528 25.3406 6.56763 25.6128 6.65138C25.8222 6.7142 26.0499 6.79272 26.1205 6.82151C26.1938 6.85292 26.4163 6.94191 26.6178 7.01782C26.8193 7.09372 27.1177 7.21674 27.2773 7.29002C27.4396 7.36331 27.5809 7.42351 27.5888 7.42351C27.6411 7.42351 28.9445 8.09879 29.3135 8.31604C29.4339 8.38671 29.5386 8.44429 29.5465 8.44429C29.5569 8.44429 29.6669 8.50972 29.7925 8.59348C29.9181 8.67462 30.138 8.81596 30.2819 8.91018C30.5567 9.08817 30.8394 9.28709 31.3288 9.6509C31.6088 9.85768 32.2317 10.3838 32.5824 10.7109C33.0849 11.1795 33.6764 11.8286 34.1083 12.3835C34.3386 12.6792 34.9432 13.5874 35.1264 13.9146C35.5347 14.6449 35.8854 15.4589 36.1078 16.1917C36.1654 16.3854 36.2256 16.5739 36.2361 16.6105C36.3146 16.8304 36.5109 17.8171 36.5763 18.3118C36.7124 19.3431 36.7176 20.7381 36.5894 21.7929C36.5475 22.1411 36.4847 22.5677 36.4454 22.7614C36.4324 22.8268 36.4036 22.9838 36.38 23.1147C36.3172 23.4707 36.1811 24.0779 36.1549 24.1276C36.0895 24.248 36.1235 24.303 36.5318 24.748C36.749 24.9888 36.9558 25.2217 36.9846 25.2636C37.0683 25.3761 37.1155 25.329 37.2071 25.0516C37.2777 24.8317 37.3065 24.7375 37.4426 24.2402C37.4871 24.0753 37.6153 23.4812 37.7122 22.9708C37.7619 22.7143 37.8535 22.018 37.9163 21.4265C37.9373 21.2459 37.9477 20.746 37.9477 20.1702C37.9477 19.2148 37.9451 19.1965 37.83 18.2333C37.7619 17.6549 37.5839 16.7728 37.4243 16.2179C37.2306 15.54 36.8014 14.4198 36.5658 13.967C36.5318 13.9015 36.4376 13.7262 36.3591 13.5744C36.0424 12.9619 35.6341 12.3259 35.184 11.7291C34.9641 11.4438 34.4328 10.8104 34.1789 10.5382C33.7262 10.0487 32.8415 9.25044 32.2867 8.82643C32.1532 8.72435 31.9805 8.59348 31.9046 8.5359C31.635 8.32912 30.6091 7.65646 30.2008 7.42089C29.413 6.96023 28.9419 6.71682 27.9395 6.25092C27.6359 6.10697 26.7539 5.74053 26.5785 5.68295C26.5 5.65678 26.3168 5.58349 26.1729 5.51806C25.8536 5.37672 25.6677 5.30866 25.003 5.08357C24.4795 4.90821 24.4062 4.88988 24.4062 4.937Z" fill="white"/>
<path d="M13.6445 9.42227C13.6105 9.46939 13.5215 9.60549 13.4456 9.72851C13.3697 9.85152 13.2048 10.1106 13.0792 10.3043C12.9536 10.498 12.7285 10.8514 12.5819 11.0895C12.4327 11.3277 12.2914 11.5502 12.2678 11.5868C12.2417 11.6235 12.137 11.7884 12.0323 11.9533C11.9276 12.1182 11.7784 12.3537 11.6999 12.4768C11.6188 12.5998 11.446 12.8694 11.3152 13.0788C11.1843 13.2881 11.0456 13.5054 11.009 13.563C10.9488 13.6546 10.6661 14.1022 10.0589 15.0627C9.84168 15.4056 9.48836 15.9579 9.34441 16.1751C9.28945 16.2589 9.21093 16.3845 9.16644 16.4552C8.93613 16.8268 8.80265 17.0389 8.67702 17.2325C8.50428 17.4995 8.48858 17.5257 8.08291 18.1696C7.74529 18.7009 7.61443 18.9077 7.33439 19.3448C7.24802 19.4783 7.11193 19.6929 7.03341 19.8185C6.87638 20.0672 6.58848 20.5226 6.49688 20.6692C6.46286 20.7189 6.32676 20.9309 6.19066 21.1403C6.05719 21.3497 5.86875 21.6402 5.77714 21.7894C5.68292 21.936 5.49449 22.2344 5.35839 22.449C5.22229 22.6636 5.09143 22.873 5.06788 22.9123C5.04432 22.9515 4.92131 23.1452 4.79569 23.3389C4.67006 23.5326 4.53135 23.7498 4.48947 23.8231C4.4476 23.8938 4.37693 24.0089 4.32982 24.077C4.28271 24.1451 4.18064 24.3021 4.10213 24.4277C4.02361 24.5534 3.88751 24.7654 3.80115 24.8989C3.71478 25.035 3.58653 25.2365 3.51587 25.3464C3.4452 25.459 3.3379 25.6265 3.2777 25.7207C3.21751 25.8149 3.09973 26.0034 3.01336 26.1395C2.92961 26.2756 2.78828 26.5007 2.6993 26.6368C2.61031 26.7729 2.46113 27.0085 2.36691 27.1603C2.21249 27.4089 1.9848 27.7649 1.75972 28.1156C1.65503 28.2779 1.06615 29.2045 0.812284 29.6075C0.320247 30.3849 0.134425 30.6623 0.0637597 30.7252C0.00356368 30.7749 -0.0121396 30.8037 0.00879812 30.8246C0.0375875 30.8534 4.41357 30.8613 6.43145 30.8377C6.9863 30.8298 11.7732 30.8115 17.0704 30.7958C22.3677 30.7801 26.7829 30.767 26.885 30.7644C27.1101 30.7592 27.1284 30.7199 26.9975 30.5393C26.9504 30.4739 26.7201 30.1127 26.4872 29.7384C25.8748 28.7543 25.8617 28.7307 25.5973 28.3145C25.2833 27.8146 25.0974 27.5162 24.909 27.2126C24.7049 26.8802 24.5897 26.6944 23.9354 25.6553C23.8281 25.4825 23.7051 25.2862 23.6658 25.2156C23.5271 24.9748 23.7496 24.9983 21.3574 24.9774C20.1954 24.9669 18.9025 24.9538 18.4837 24.9486C18.0676 24.9434 16.6726 24.9303 15.3902 24.9198C12.8358 24.9015 12.93 24.9067 13.0478 24.7575C13.0792 24.7183 13.1237 24.6502 13.1472 24.6083C13.1708 24.5638 13.2388 24.4539 13.3016 24.3597C13.5241 24.0168 13.7073 23.7263 14.639 22.2317C14.8589 21.881 15.0552 21.5722 15.3666 21.0879C15.5289 20.8367 15.7435 20.4938 15.8456 20.3289C16.068 19.9625 16.1884 19.7688 16.6386 19.0595C16.8297 18.7559 17.039 18.4208 17.1045 18.3135C17.1673 18.2062 17.2824 18.023 17.3583 17.9078C17.4316 17.7927 17.5572 17.599 17.6331 17.476C17.976 16.9315 18.0728 16.7797 18.1775 16.6227C18.2377 16.5311 18.2874 16.4395 18.2874 16.4212C18.2874 16.4028 18.2482 16.3348 18.2037 16.272C18.1566 16.2091 18.0754 16.0914 18.0257 16.0076C17.942 15.8715 17.8373 15.704 17.4761 15.1491C17.4107 15.0496 17.2929 14.8638 17.2118 14.7356C17.1306 14.6099 16.971 14.3613 16.8584 14.1859C16.6255 13.8247 16.1256 13.0473 15.911 12.7123C15.7252 12.4192 15.5263 12.1103 15.296 11.757C15.0761 11.422 14.8589 11.0791 14.626 10.71C14.5344 10.5661 14.3956 10.3488 14.3171 10.2258C14.2386 10.1028 14.0868 9.86723 13.9795 9.70233C13.8722 9.53744 13.7858 9.39348 13.7858 9.38563C13.7858 9.37516 13.7675 9.36207 13.7466 9.3516C13.723 9.34375 13.6838 9.36992 13.6445 9.42227Z" fill="white"/>
<path d="M8.13057 31.894C8.05991 31.8992 7.75893 31.9254 7.46318 31.9542C7.16744 31.9804 6.90833 32.0013 6.8874 32.0013C6.71728 31.9908 6.71466 32.0563 6.87954 32.1714C6.94759 32.2159 7.07322 32.3102 7.15959 32.3756C7.24857 32.441 7.48936 32.6085 7.69873 32.7473C7.90811 32.886 8.13057 33.0378 8.196 33.0823C8.75085 33.4592 10.1982 34.2366 11.0749 34.6292C12.6505 35.3385 14.1031 35.8148 15.7728 36.1708C16.1968 36.2624 17.3039 36.4273 17.7619 36.4692C17.864 36.477 18.0341 36.498 18.1414 36.5111C18.2487 36.5242 18.4791 36.5451 18.6518 36.5608C18.8245 36.5739 18.9685 36.5974 18.9737 36.6131C18.9868 36.6498 20.3059 36.6498 20.319 36.6131C20.3242 36.6001 20.5048 36.5713 20.7194 36.5477C21.9181 36.4299 21.9155 36.4299 22.6823 36.3095C24.0171 36.1001 25.8099 35.5636 27.0059 35.0192C27.1682 34.9459 27.3069 34.8857 27.3122 34.8857C27.3174 34.8857 27.5346 34.7836 27.7911 34.658C29.0003 34.069 30.3429 33.242 31.45 32.4044C31.552 32.3285 31.6751 32.2395 31.7248 32.2081C31.9263 32.0772 31.8687 32.0641 30.7878 31.9804L30.3848 31.949L30.2356 32.051C30.1545 32.1086 30.0236 32.1924 29.9451 32.2343C29.8666 32.2788 29.6964 32.3756 29.5656 32.4515C28.6443 32.9907 27.2232 33.6319 26.0454 34.0376C25.132 34.3517 24.5615 34.514 23.546 34.7469C22.6509 34.9511 21.5805 35.1081 20.4315 35.1998C19.895 35.2443 18.3587 35.2364 17.7881 35.1867C17.0945 35.1265 15.9063 34.9616 15.4457 34.8595C15.1473 34.7941 14.2496 34.5742 14.1502 34.5454C13.187 34.247 12.3234 33.9408 11.847 33.7288C11.7031 33.6634 11.5094 33.577 11.4152 33.5377C10.9388 33.3309 9.72708 32.6897 9.21148 32.3704C9.08586 32.2918 8.92097 32.1898 8.84507 32.1427C8.76917 32.0955 8.64878 32.017 8.57812 31.9673C8.44726 31.8731 8.44464 31.8731 8.13057 31.894Z" fill="white"/>
</svg>
