<svg width="39" height="37" viewBox="0 0 39 37" fill="none" xmlns="http://www.w3.org/2000/svg">
<path d="M19.3134 0.333255C19.2951 0.375133 19.2454 0.464124 19.1983 0.537411C19.1538 0.60808 19.036 0.796529 18.9392 0.95619C18.8423 1.11323 18.6617 1.39591 18.5414 1.58436C18.3581 1.86704 18.1671 2.18113 17.8556 2.7046C17.8321 2.74386 17.7326 2.90614 17.6306 3.06318C17.4421 3.35895 17.3243 3.54478 16.8847 4.25409C16.4031 5.03146 16.3167 5.17018 16.178 5.39265C16.1021 5.51567 15.9582 5.74338 15.8613 5.90305C15.7645 6.06009 15.6362 6.26948 15.5734 6.36894C15.5106 6.46578 15.3876 6.65685 15.3012 6.79557C15.2149 6.93168 15.1102 7.09919 15.0683 7.16462C14.9976 7.27455 14.995 7.29026 15.029 7.34522C15.1128 7.48656 15.5158 8.11735 15.6519 8.32674C15.7331 8.44976 15.9398 8.77693 16.1126 9.05437C16.4266 9.55953 16.7276 10.0359 16.9239 10.3447C17.0155 10.4861 17.2668 10.8865 17.4029 11.1064C17.4447 11.1745 17.6201 11.4519 17.9315 11.9492C18.0048 12.0644 18.1723 12.3287 18.3058 12.5381C18.4393 12.7475 18.5885 12.9883 18.6382 13.0721C18.6879 13.1532 18.8292 13.3809 18.9523 13.5746C19.2114 13.9829 19.7139 14.7838 20.0044 15.2419C20.3813 15.8412 20.4519 15.9538 20.5618 16.1239C20.622 16.2182 20.6901 16.3281 20.7136 16.3726C20.7346 16.4145 20.7895 16.4956 20.834 16.5532C20.8785 16.6081 20.9152 16.6683 20.9152 16.684C20.9152 16.6998 20.8785 16.773 20.834 16.8437C20.7372 17.0034 20.5331 17.3515 20.3132 17.7336C20.2242 17.8907 20.075 18.1445 19.9861 18.2964C19.8945 18.4482 19.7898 18.6366 19.7505 18.7151C19.7112 18.7937 19.6458 18.9062 19.6066 18.9638C19.5673 19.0214 19.4652 19.1915 19.3789 19.3433C19.2925 19.4951 19.1355 19.7647 19.0308 19.9453C18.9261 20.1259 18.8214 20.3065 18.8005 20.351C18.7769 20.3929 18.7167 20.495 18.6644 20.5735C18.6094 20.652 18.523 20.8064 18.4681 20.9137C18.4131 21.021 18.3503 21.1388 18.3241 21.1755C18.2979 21.2121 18.1906 21.3927 18.0833 21.5812C17.976 21.767 17.7719 22.1203 17.6306 22.3664C17.4892 22.6098 17.3217 22.8925 17.2589 22.9946C17.1699 23.1307 17.1464 23.1856 17.1647 23.217C17.1804 23.238 17.2066 23.2563 17.2275 23.2563C17.5965 23.2511 21.9699 23.2118 23.2131 23.2039L24.8933 23.1935L24.9562 23.2511C25.019 23.3086 25.2388 23.6489 25.4744 24.0546C25.545 24.1776 25.6209 24.2954 25.6392 24.3163C25.6576 24.3373 25.6994 24.4079 25.7308 24.4708C25.7623 24.5362 25.8277 24.6487 25.8748 24.7194C25.9219 24.7927 26.0711 25.0413 26.2098 25.2717C26.3459 25.502 26.5239 25.7978 26.605 25.9313C26.6861 26.0621 26.7516 26.1773 26.7516 26.1878C26.7516 26.1982 26.7908 26.2663 26.8405 26.3396C26.9269 26.4731 27.2253 26.9599 27.3928 27.2478C27.4791 27.397 27.6283 27.6456 27.8639 28.033C27.9372 28.156 28.0314 28.3131 28.0733 28.3864C28.1125 28.457 28.1832 28.5748 28.2303 28.6481C28.2774 28.7188 28.526 29.1323 28.7825 29.5616C29.0416 29.9908 29.2981 30.4227 29.3557 30.5169C29.4133 30.6138 29.518 30.7891 29.5886 30.9095C29.6593 31.0273 29.7404 31.1372 29.7666 31.1503C29.8006 31.1686 30.4994 31.1686 31.9415 31.1503C34.7341 31.1137 38.3772 31.0823 38.6651 31.0927C38.7908 31.0954 38.9164 31.0927 38.9478 31.0823C39.0237 31.0587 39.0132 30.9802 38.9269 30.9488C38.851 30.92 38.7515 30.7734 37.8643 29.3679C37.7936 29.2606 37.6366 29.0119 37.5136 28.8156C37.3879 28.6193 37.2204 28.3576 37.1419 28.2319C37.0634 28.1063 36.9168 27.876 36.8148 27.7189C36.4641 27.1719 36.3463 26.9861 35.7312 26.0124C35.6789 25.9286 35.5663 25.7507 35.48 25.6119C35.3936 25.4758 35.2732 25.29 35.213 25.1984C35.1528 25.1094 35.0612 24.9654 35.0089 24.8791C34.9592 24.7927 34.8597 24.633 34.789 24.5257C34.7184 24.4184 34.5927 24.2195 34.509 24.0834C34.3546 23.8374 34.0065 23.2903 33.784 22.9422C33.7186 22.8401 33.5956 22.6464 33.5092 22.5103C33.3391 22.2434 33.1794 21.9921 32.8811 21.521C32.6455 21.1519 32.3629 20.7096 32.1692 20.4033C31.9179 20.0081 31.4599 19.2831 31.3971 19.1863C31.3657 19.1365 31.2715 18.9873 31.1851 18.8539C31.1014 18.723 30.9496 18.4822 30.8475 18.3225C30.6172 17.9587 30.4732 17.731 30.2403 17.3672C30.1382 17.2075 29.942 16.8961 29.8006 16.6736C29.6593 16.4511 29.5075 16.2077 29.4604 16.137C29.4133 16.0637 29.2798 15.8517 29.1594 15.6659C29.0416 15.4774 28.8898 15.2419 28.8218 15.1372C28.7564 15.0325 28.6307 14.8336 28.5444 14.6948C28.458 14.5561 28.314 14.331 28.2251 14.1975C28.1335 14.0614 28.0602 13.9436 28.0602 13.9332C28.0602 13.9253 27.9869 13.8049 27.8953 13.6662C27.8037 13.5275 27.6833 13.3416 27.6257 13.25C27.5708 13.161 27.4844 13.0249 27.4347 12.949C27.3875 12.8731 27.2567 12.6716 27.1494 12.4988C27.0421 12.3261 26.8929 12.0905 26.817 11.9754C26.6887 11.7738 26.482 11.4519 26.2334 11.0593C26.1705 10.9572 26.024 10.7321 25.9114 10.5541C25.7989 10.3762 25.7047 10.2243 25.7047 10.2113C25.7047 10.2008 25.668 10.1432 25.6235 10.083C25.579 10.0228 25.4508 9.82912 25.3409 9.65114C24.7127 8.66177 24.1213 7.72736 24.082 7.66978C23.8988 7.39495 23.7418 7.1463 23.7077 7.08087C23.6868 7.03637 23.6057 6.90812 23.5271 6.79296C23.4513 6.67779 23.323 6.47887 23.2445 6.35323C23.166 6.22498 23.0194 5.99204 22.9173 5.83499C22.8179 5.67795 22.6347 5.39004 22.5117 5.19374C22.3887 5.00005 22.1871 4.68335 22.0615 4.48966C21.9359 4.29597 21.8155 4.09705 21.7946 4.0447C21.7736 3.99497 21.6689 3.82484 21.5642 3.67042C21.4622 3.51599 21.292 3.26472 21.19 3.10768C21.0905 2.95326 20.9727 2.77265 20.9283 2.70722C20.8864 2.64178 20.7974 2.50045 20.732 2.39575C20.6665 2.29106 20.5828 2.16019 20.5461 2.1026C20.5095 2.04764 20.3629 1.81731 20.219 1.58959C20.0777 1.36188 19.9154 1.108 19.863 1.02686C19.8081 0.943104 19.74 0.830556 19.7086 0.772974C19.6772 0.715391 19.6196 0.626401 19.5804 0.576671C19.5411 0.526941 19.4835 0.435329 19.4521 0.372512C19.3867 0.24426 19.3553 0.236411 19.3134 0.333255Z" fill="#0075FF"/>
<path d="M14.3611 5.21753C14.3114 5.23847 14.081 5.31961 13.8507 5.39813C13.2619 5.59443 12.9007 5.7253 12.5814 5.85355C12.4296 5.91375 12.2124 6.00013 12.0972 6.04462C11.7334 6.18596 11.0111 6.50005 10.6316 6.68065C10.43 6.77749 10.1892 6.8848 10.095 6.92406C10.0008 6.96071 9.84377 7.04185 9.74432 7.10728C9.64486 7.17272 9.49568 7.25124 9.41455 7.28526C9.25228 7.3507 9.0115 7.48418 8.93822 7.54962C8.91204 7.57317 8.76024 7.66478 8.59798 7.75377C8.43571 7.84538 8.19754 7.99196 8.06668 8.07833C7.43593 8.5102 6.91772 8.8714 6.83136 8.94207C6.77639 8.98656 6.48588 9.21951 6.18229 9.46031C5.59865 9.9262 4.86321 10.6329 4.44184 11.1328C4.32144 11.2742 4.16965 11.4521 4.10422 11.5228C3.96812 11.672 3.66191 12.0698 3.48655 12.3211C3.19342 12.7477 2.92123 13.1639 2.9003 13.2189C2.88721 13.2529 2.82178 13.3628 2.75635 13.4649C2.63596 13.6534 2.37423 14.1742 2.20412 14.5721C2.15177 14.6951 2.06279 14.8888 2.00782 15.0039C1.95286 15.1191 1.86126 15.3547 1.80368 15.5274C1.74349 15.7001 1.66759 15.9226 1.63356 16.0247C1.47391 16.4749 1.30641 17.1868 1.1834 17.9223C1.15985 18.0741 1.1232 18.2678 1.10227 18.3542C1.04731 18.595 0.960938 19.833 0.960938 20.4088C0.960938 21.0265 1.03945 22.207 1.10488 22.5577C1.12582 22.6781 1.18602 23.0288 1.23575 23.3377C1.28809 23.6465 1.37708 24.081 1.43727 24.3061C1.49485 24.5312 1.55766 24.7851 1.5786 24.8715C1.63095 25.1175 1.7906 25.5494 1.83771 25.5782C1.86911 25.5991 1.8979 25.5808 1.97642 25.4865C2.02876 25.4237 2.24076 25.1829 2.44752 24.9578L2.8244 24.5443L2.76943 24.3794C2.64119 23.9815 2.46845 23.0445 2.35068 22.1232C2.26169 21.4296 2.25646 21.3275 2.25908 20.3303C2.25908 19.4273 2.26693 19.2362 2.31666 18.8122C2.35068 18.5452 2.39256 18.2626 2.41349 18.184C2.43443 18.1055 2.46845 17.9275 2.49201 17.7914C2.56267 17.3727 2.67783 16.9041 2.78776 16.5874C2.84272 16.4225 2.916 16.2105 2.94479 16.1163C3.0678 15.7368 3.13584 15.564 3.29811 15.2107C3.53104 14.7082 3.66714 14.4386 3.80324 14.2135C3.86605 14.1088 3.91839 14.0119 3.91839 13.9988C3.91839 13.9831 3.98382 13.8785 4.06234 13.7633C4.14086 13.6481 4.20629 13.5434 4.20629 13.5303C4.20629 13.5068 4.31359 13.3524 4.63289 12.9257C4.72188 12.8053 4.83965 12.6404 4.89723 12.5593C4.95219 12.4782 5.09876 12.3002 5.22438 12.1641C5.34739 12.028 5.50443 11.85 5.57247 11.7715C5.74259 11.5673 6.50159 10.8213 6.78948 10.5779C7.21347 10.2141 7.27367 10.1644 7.48828 9.99949C7.97508 9.6252 8.40692 9.32944 8.87802 9.04676C8.98009 8.98656 9.09787 8.90542 9.13974 8.86616C9.18423 8.82428 9.34127 8.73006 9.49307 8.65677C9.64486 8.58087 9.82022 8.48141 9.88565 8.43691C9.95108 8.39242 10.0689 8.32175 10.1474 8.27987C10.485 8.1045 11.2466 7.7276 11.4036 7.66217C12.6311 7.13869 12.9373 7.02091 13.5288 6.85339C13.6623 6.81413 13.8376 6.69373 13.8376 6.63877C13.8376 6.6283 13.9921 6.30636 14.1805 5.92422C14.3663 5.54209 14.5129 5.21753 14.505 5.20183C14.4841 5.1678 14.471 5.17042 14.3611 5.21753Z" fill="#0075FF"/>
<path d="M24.4062 5.20262C24.4062 5.21833 24.5607 5.54288 24.7465 5.9224C24.9349 6.30454 25.0867 6.62648 25.0867 6.63695C25.0867 6.65003 25.1208 6.68929 25.16 6.72856C25.215 6.7809 25.3406 6.83325 25.6128 6.91701C25.8222 6.97982 26.0499 7.05835 26.1205 7.08714C26.1938 7.11855 26.4163 7.20754 26.6178 7.28344C26.8193 7.35934 27.1177 7.48236 27.2773 7.55565C27.4396 7.62894 27.5809 7.68913 27.5888 7.68913C27.6411 7.68913 28.9445 8.36442 29.3135 8.58166C29.4339 8.65233 29.5386 8.70991 29.5465 8.70991C29.5569 8.70991 29.6669 8.77535 29.7925 8.8591C29.9181 8.94024 30.138 9.08158 30.2819 9.17581C30.5567 9.35379 30.8394 9.55271 31.3288 9.91653C31.6088 10.1233 32.2317 10.6494 32.5824 10.9766C33.0849 11.4451 33.6764 12.0942 34.1083 12.6491C34.3386 12.9448 34.9432 13.8531 35.1264 14.1802C35.5347 14.9105 35.8854 15.7245 36.1078 16.4574C36.1654 16.6511 36.2256 16.8395 36.2361 16.8761C36.3146 17.096 36.5109 18.0828 36.5763 18.5774C36.7124 19.6087 36.7176 21.0038 36.5894 22.0586C36.5475 22.4067 36.4847 22.8333 36.4454 23.027C36.4324 23.0924 36.4036 23.2495 36.38 23.3803C36.3172 23.7363 36.1811 24.3435 36.1549 24.3933C36.0895 24.5137 36.1235 24.5686 36.5318 25.0136C36.749 25.2544 36.9558 25.4873 36.9846 25.5292C37.0683 25.6418 37.1155 25.5946 37.2071 25.3172C37.2777 25.0973 37.3065 25.0031 37.4426 24.5058C37.4871 24.3409 37.6153 23.7468 37.7122 23.2364C37.7619 22.9799 37.8535 22.2837 37.9163 21.6921C37.9373 21.5115 37.9477 21.0116 37.9477 20.4358C37.9477 19.4804 37.9451 19.4621 37.83 18.4989C37.7619 17.9205 37.5839 17.0384 37.4243 16.4835C37.2306 15.8056 36.8014 14.6854 36.5658 14.2326C36.5318 14.1672 36.4376 13.9918 36.3591 13.84C36.0424 13.2275 35.6341 12.5915 35.184 11.9947C34.9641 11.7094 34.4328 11.076 34.1789 10.8038C33.7262 10.3144 32.8415 9.51607 32.2867 9.09205C32.1532 8.98997 31.9805 8.8591 31.9046 8.80152C31.635 8.59475 30.6091 7.92208 30.2008 7.68652C29.413 7.22586 28.9419 6.98244 27.9395 6.51655C27.6359 6.37259 26.7539 6.00616 26.5785 5.94858C26.5 5.9224 26.3168 5.84911 26.1729 5.78368C25.8536 5.64234 25.6677 5.57429 25.003 5.34919C24.4795 5.17383 24.4062 5.15551 24.4062 5.20262Z" fill="#0075FF"/>
<path d="M13.6445 9.6879C13.6105 9.73501 13.5215 9.87111 13.4456 9.99413C13.3697 10.1171 13.2048 10.3763 13.0792 10.57C12.9536 10.7636 12.7285 11.117 12.5819 11.3552C12.4327 11.5934 12.2914 11.8158 12.2678 11.8525C12.2417 11.8891 12.137 12.054 12.0323 12.2189C11.9276 12.3838 11.7784 12.6194 11.6999 12.7424C11.6188 12.8654 11.446 13.135 11.3152 13.3444C11.1843 13.5538 11.0456 13.771 11.009 13.8286C10.9488 13.9202 10.6661 14.3678 10.0589 15.3284C9.84168 15.6712 9.48836 16.2235 9.34441 16.4407C9.28945 16.5245 9.21093 16.6501 9.16644 16.7208C8.93613 17.0925 8.80265 17.3045 8.67702 17.4982C8.50428 17.7651 8.48858 17.7913 8.08291 18.4352C7.74529 18.9665 7.61443 19.1733 7.33439 19.6104C7.24802 19.7439 7.11193 19.9585 7.03341 20.0841C6.87638 20.3328 6.58848 20.7882 6.49688 20.9348C6.46286 20.9845 6.32676 21.1965 6.19066 21.4059C6.05719 21.6153 5.86875 21.9058 5.77714 22.055C5.68292 22.2016 5.49449 22.5 5.35839 22.7146C5.22229 22.9292 5.09143 23.1386 5.06788 23.1779C5.04432 23.2172 4.92131 23.4108 4.79569 23.6045C4.67006 23.7982 4.53135 24.0155 4.48947 24.0887C4.4476 24.1594 4.37693 24.2746 4.32982 24.3426C4.28271 24.4107 4.18064 24.5677 4.10213 24.6934C4.02361 24.819 3.88751 25.031 3.80115 25.1645C3.71478 25.3006 3.58653 25.5021 3.51587 25.6121C3.4452 25.7246 3.3379 25.8921 3.2777 25.9863C3.21751 26.0806 3.09973 26.269 3.01336 26.4051C2.92961 26.5412 2.78828 26.7663 2.6993 26.9024C2.61031 27.0385 2.46113 27.2741 2.36691 27.4259C2.21249 27.6746 1.9848 28.0305 1.75972 28.3812C1.65503 28.5435 1.06615 29.4701 0.812284 29.8732C0.320247 30.6505 0.134425 30.928 0.0637597 30.9908C0.00356368 31.0405 -0.0121396 31.0693 0.00879812 31.0902C0.0375875 31.119 4.41357 31.1269 6.43145 31.1033C6.9863 31.0955 11.7732 31.0772 17.0704 31.0614C22.3677 31.0457 26.7829 31.0327 26.885 31.03C27.1101 31.0248 27.1284 30.9855 26.9975 30.8049C26.9504 30.7395 26.7201 30.3783 26.4872 30.004C25.8748 29.0199 25.8617 28.9963 25.5973 28.5802C25.2833 28.0802 25.0974 27.7819 24.909 27.4782C24.7049 27.1458 24.5897 26.96 23.9354 25.9209C23.8281 25.7482 23.7051 25.5519 23.6658 25.4812C23.5271 25.2404 23.7496 25.2639 21.3574 25.243C20.1954 25.2325 18.9025 25.2194 18.4837 25.2142C18.0676 25.209 16.6726 25.1959 15.3902 25.1854C12.8358 25.1671 12.93 25.1723 13.0478 25.0231C13.0792 24.9839 13.1237 24.9158 13.1472 24.874C13.1708 24.8295 13.2388 24.7195 13.3016 24.6253C13.5241 24.2824 13.7073 23.9919 14.639 22.4974C14.8589 22.1466 15.0552 21.8378 15.3666 21.3536C15.5289 21.1023 15.7435 20.7594 15.8456 20.5945C16.068 20.2281 16.1884 20.0344 16.6386 19.3251C16.8297 19.0215 17.039 18.6865 17.1045 18.5791C17.1673 18.4718 17.2824 18.2886 17.3583 18.1735C17.4316 18.0583 17.5572 17.8646 17.6331 17.7416C17.976 17.1972 18.0728 17.0454 18.1775 16.8883C18.2377 16.7967 18.2874 16.7051 18.2874 16.6868C18.2874 16.6685 18.2482 16.6004 18.2037 16.5376C18.1566 16.4748 18.0754 16.357 18.0257 16.2732C17.942 16.1371 17.8373 15.9696 17.4761 15.4147C17.4107 15.3153 17.2929 15.1294 17.2118 15.0012C17.1306 14.8756 16.971 14.6269 16.8584 14.4515C16.6255 14.0903 16.1256 13.313 15.911 12.9779C15.7252 12.6848 15.5263 12.3759 15.296 12.0226C15.0761 11.6876 14.8589 11.3447 14.626 10.9756C14.5344 10.8317 14.3956 10.6145 14.3171 10.4914C14.2386 10.3684 14.0868 10.1329 13.9795 9.96796C13.8722 9.80306 13.7858 9.65911 13.7858 9.65125C13.7858 9.64078 13.7675 9.6277 13.7466 9.61723C13.723 9.60938 13.6838 9.63555 13.6445 9.6879Z" fill="#0075FF"/>
<path d="M8.13057 32.1596C8.05991 32.1649 7.75893 32.191 7.46318 32.2198C7.16744 32.246 6.90833 32.2669 6.8874 32.2669C6.71728 32.2565 6.71466 32.3219 6.87954 32.4371C6.94759 32.4816 7.07322 32.5758 7.15959 32.6412C7.24857 32.7067 7.48936 32.8742 7.69873 33.0129C7.90811 33.1516 8.13057 33.3034 8.196 33.3479C8.75085 33.7248 10.1982 34.5022 11.0749 34.8948C12.6505 35.6041 14.1031 36.0805 15.7728 36.4364C16.1968 36.528 17.3039 36.6929 17.7619 36.7348C17.864 36.7427 18.0341 36.7636 18.1414 36.7767C18.2487 36.7898 18.4791 36.8107 18.6518 36.8264C18.8245 36.8395 18.9685 36.8631 18.9737 36.8788C18.9868 36.9154 20.3059 36.9154 20.319 36.8788C20.3242 36.8657 20.5048 36.8369 20.7194 36.8133C21.9181 36.6956 21.9155 36.6956 22.6823 36.5752C24.0171 36.3658 25.8099 35.8292 27.0059 35.2848C27.1682 35.2115 27.3069 35.1513 27.3122 35.1513C27.3174 35.1513 27.5346 35.0492 27.7911 34.9236C29.0003 34.3347 30.3429 33.5076 31.45 32.67C31.552 32.5941 31.6751 32.5051 31.7248 32.4737C31.9263 32.3428 31.8687 32.3298 30.7878 32.246L30.3848 32.2146L30.2356 32.3167C30.1545 32.3743 30.0236 32.458 29.9451 32.4999C29.8666 32.5444 29.6964 32.6412 29.5656 32.7171C28.6443 33.2563 27.2232 33.8976 26.0454 34.3033C25.132 34.6173 24.5615 34.7796 23.546 35.0126C22.6509 35.2167 21.5805 35.3738 20.4315 35.4654C19.895 35.5099 18.3587 35.502 17.7881 35.4523C17.0945 35.3921 15.9063 35.2272 15.4457 35.1251C15.1473 35.0597 14.2496 34.8398 14.1502 34.811C13.187 34.5127 12.3234 34.2064 11.847 33.9944C11.7031 33.929 11.5094 33.8426 11.4152 33.8033C10.9388 33.5966 9.72708 32.9553 9.21148 32.636C9.08586 32.5575 8.92097 32.4554 8.84507 32.4083C8.76917 32.3612 8.64878 32.2826 8.57812 32.2329C8.44726 32.1387 8.44464 32.1387 8.13057 32.1596Z" fill="#0075FF"/>
</svg>
